<?xml version="1.0" encoding="UTF-8" standalone="no"?>
<svg
   xmlns:dc="http://purl.org/dc/elements/1.1/"
   xmlns:cc="http://creativecommons.org/ns#"
   xmlns:rdf="http://www.w3.org/1999/02/22-rdf-syntax-ns#"
   xmlns:svg="http://www.w3.org/2000/svg"
   xmlns="http://www.w3.org/2000/svg"
   xmlns:sodipodi="http://sodipodi.sourceforge.net/DTD/sodipodi-0.dtd"
   xmlns:inkscape="http://www.inkscape.org/namespaces/inkscape"
   width="16"
   height="16"
   viewBox="0 0 4.2333333 4.2333334"
   version="1.1"
   id="svg8"
   sodipodi:docname="resize.svg"
   inkscape:version="1.0.2-2 (e86c870879, 2021-01-15)">
  <defs
     id="defs2" />
  <sodipodi:namedview
     id="base"
     pagecolor="#ffffff"
     bordercolor="#666666"
     borderopacity="1.0"
     inkscape:pageopacity="0.0"
     inkscape:pageshadow="2"
     inkscape:zoom="11.2"
     inkscape:cx="15.710942"
     inkscape:cy="14.256539"
     inkscape:document-units="mm"
     inkscape:current-layer="layer1"
     inkscape:document-rotation="0"
     showgrid="false"
     units="px"
     inkscape:window-width="1346"
     inkscape:window-height="1040"
     inkscape:window-x="26"
     inkscape:window-y="0"
     inkscape:window-maximized="0" />
  <metadata
     id="metadata5">
    <rdf:RDF>
      <cc:Work
         rdf:about="">
        <dc:format>image/svg+xml</dc:format>
        <dc:type
           rdf:resource="http://purl.org/dc/dcmitype/StillImage" />
        <dc:title></dc:title>
      </cc:Work>
    </rdf:RDF>
  </metadata>
  <g
     inkscape:label="Layer 1"
     inkscape:groupmode="layer"
     id="layer1">
    <path
       style="fill:#000000;stroke:#000000;stroke-width:0.128248px;stroke-linecap:butt;stroke-linejoin:miter;stroke-opacity:1"
       d="M 0.064124,0.064124 V 2.0707997 L 0.7616456,1.4630635 2.6998403,3.4754726 2.0880799,4.1692092 H 4.1692095 V 2.093733 L 3.443101,2.7760028 1.4991888,0.7922606 2.1681233,0.064124 Z"
       id="path18"
       sodipodi:nodetypes="ccccccccccc" />
    <path
       style="fill:#000000;stroke:none;stroke-width:0.0236235"
       d="m 2.2811467,4.0802381 c 0,-0.0072 0.1182564,-0.1458329 0.2627919,-0.3080815 L 2.8067308,3.4771589 2.655697,3.3186761 C 2.5726284,3.2315108 2.1131422,2.7537191 1.6346164,2.2569171 L 0.76456953,1.3536406 0.51662804,1.5718352 C 0.38026023,1.6918423 0.23779867,1.8147192 0.20004684,1.844895 l -0.0686398,0.054865 V 1.0239779 0.1481958 H 1.054556 1.9777049 L 1.875473,0.263629 C 1.819246,0.327117 1.6908542,0.469191 1.5901589,0.5793485 1.4894637,0.689506 1.4070767,0.7875152 1.4070767,0.7971467 c 0,0.030719 2.0135829,2.067753 2.0439478,2.067753 0.016025,0 0.042446,-0.016037 0.058712,-0.035637 0.016268,-0.0196 0.1557669,-0.15368 0.3099989,-0.2979544 L 4.1001571,2.2689906 v 0.9121657 0.912166 H 3.1906519 c -0.5002279,0 -0.9095052,-0.00589 -0.9095052,-0.013084 z"
       id="path31" />
  </g>
</svg>
